<svg width="482" height="453" viewBox="0 0 482 453" fill="none" xmlns="http://www.w3.org/2000/svg">
<circle cx="240.532" cy="230" r="207.5" fill="#F7AF1C" stroke="#FEFEFE" stroke-width="5"/>
<g clip-path="url(#clip0_846_1905)">
<rect width="274" height="169" transform="translate(108.532 153)" fill="#F7AF1C"/>
<path d="M109.086 320.951V249.04H132.334C151.892 249.04 167.945 265.158 167.945 284.995C167.945 304.833 151.892 320.951 132.334 320.951H109.086ZM132.334 307.694C144.789 307.694 154.937 297.489 154.937 284.995C154.937 272.502 144.789 262.297 132.334 262.297H122.001V307.694H132.334Z" fill="#FEFEFE"/>
<path d="M180.953 293.96V249.04H193.961V293.96C193.776 301.972 199.865 308.648 207.615 308.839C215.364 309.029 221.822 302.735 222.007 294.723C222.007 294.437 222.007 294.247 222.007 293.96V249.04H235.107V293.96C235.107 301.4 232.247 308.457 227.173 313.703C216.564 324.575 199.404 324.575 188.887 313.703C183.813 308.457 180.953 301.4 180.953 293.96Z" fill="#FEFEFE"/>
<path d="M301.07 320.951L275.238 283.374L264.075 294.342V320.951H251.16V249.135H264.075V276.03L291.844 249.135H310.48L285.11 274.028L317.307 320.951H301.07Z" fill="#FEFEFE"/>
<path d="M327.086 320.951V249.135H372.845V262.201H340.187V272.788H368.601V286.235H340.187V307.599H371.923V320.951H327.086Z" fill="#FEFEFE"/>
<path d="M149.77 227.104V192.293H121.632V227.104H108.532V155.194H121.632V179.037H149.77V155.194H162.778V227.104H149.77Z" fill="#FEFEFE"/>
<path d="M260.662 225.292C256.326 223.385 252.451 220.619 249.13 217.186C245.716 213.752 243.041 209.747 241.288 205.169C239.351 200.591 238.336 195.536 238.336 190.577C238.521 169.786 254.758 153 274.777 153C286.217 153 297.011 158.627 303.838 168.164L305.406 170.167L294.981 178.178L293.505 176.176C289.169 170.072 282.158 166.448 274.777 166.448C261.861 166.448 251.344 177.225 251.344 190.672C251.344 204.12 261.769 214.897 274.777 214.897C282.158 214.897 289.077 211.273 293.505 205.169L294.981 203.261L305.314 211.177L303.745 213.18C296.919 222.622 286.217 228.249 274.777 228.249C269.98 228.249 265.182 227.2 260.662 225.292Z" fill="#FEFEFE"/>
<path d="M366.295 227.104L340.463 189.528L329.3 200.4V227.104H316.292V155.194H329.3V182.184L356.977 155.194H375.705L350.242 180.181L382.532 227.104H366.295Z" fill="#FEFEFE"/>
<path d="M209.644 155.194H197.836L171.081 227.104H185.012L192.3 207.744L203.74 176.938L215.272 207.744L222.376 227.104H236.399L209.644 155.194Z" fill="#FEFEFE"/>
</g>
<path d="M28.001 283.147L98.7036 340.62C100.197 341.834 99.8162 344.21 98.0182 344.896L12.8937 377.39C11.0958 378.076 9.22907 376.559 9.53368 374.658L23.9556 284.692C24.2602 282.791 26.5076 281.933 28.001 283.147Z" stroke="#242424" stroke-width="3" stroke-linecap="round" stroke-linejoin="round"/>
<path d="M112.532 344H49.532C47.8751 344 46.532 345.343 46.532 347V412C46.532 413.657 47.8751 415 49.532 415H112.532C114.189 415 115.532 413.657 115.532 412V347C115.532 345.343 114.189 344 112.532 344Z" fill="#35C69B"/>
<path d="M126.032 360V451M81.532 405.5H170.532M94.5657 373.327L157.498 437.673M157.498 373.327L94.5657 437.673" stroke="#E55511" stroke-width="3" stroke-linecap="round"/>
<path d="M385.368 73.7585C383.265 78.7387 380.182 83.2638 376.297 87.0754L348.136 114.7C347.348 115.473 346.069 115.473 345.281 114.7L288.96 59.4508C288.171 58.6773 288.171 57.4232 288.96 56.6497L317.12 29.0251C321.006 25.2135 325.619 22.1899 330.696 20.1271C335.772 18.0643 341.214 17.0026 346.709 17.0026C352.204 17.0026 357.645 18.0643 362.722 20.1271C367.798 22.1899 372.411 25.2135 376.297 29.0251C380.182 32.8367 383.265 37.3619 385.368 42.342C387.47 47.3221 388.553 52.6598 388.553 58.0503C388.553 63.4407 387.47 68.7784 385.368 73.7585Z" fill="#0A2A66"/>
<path d="M369.532 33.5H447.532C448.361 33.5 449.032 34.1716 449.032 35V114C449.032 114.828 448.361 115.5 447.532 115.5H369.532C368.704 115.5 368.032 114.828 368.032 114V35C368.032 34.1716 368.704 33.5 369.532 33.5Z" stroke="#FEFEFE" stroke-width="3"/>
<defs>
<clipPath id="clip0_846_1905">
<rect width="274" height="169" fill="white" transform="translate(108.532 153)"/>
</clipPath>
</defs>
</svg>
