<svg width="365" height="218" viewBox="0 0 365 218" fill="none" xmlns="http://www.w3.org/2000/svg">
<path d="M0.737373 216.647V123.886H31.7071C57.7609 123.886 79.1448 144.677 79.1448 170.266C79.1448 195.856 57.7609 216.647 31.7071 216.647H0.737373ZM31.7071 199.546C48.298 199.546 61.8165 186.383 61.8165 170.266C61.8165 154.15 48.298 140.986 31.7071 140.986H17.9428V199.546H31.7071Z" fill="#FEFEFE"/>
<path d="M96.4731 181.831V123.886H113.801V181.831C113.556 192.165 121.667 200.777 131.99 201.023C142.313 201.269 150.916 193.149 151.162 182.815C151.162 182.446 151.162 182.2 151.162 181.831V123.886H168.613V181.831C168.613 191.427 164.803 200.53 158.044 207.297C143.911 221.322 121.052 221.322 107.042 207.297C100.283 200.53 96.4731 191.427 96.4731 181.831Z" fill="#FEFEFE"/>
<path d="M256.483 216.647L222.072 168.175L207.202 182.323V216.647H189.997V124.009H207.202V158.702L244.194 124.009H269.019L235.222 156.119L278.113 216.647H256.483Z" fill="#FEFEFE"/>
<path d="M291.14 216.647V124.009H352.096V140.863H308.591V154.519H346.443V171.866H308.591V199.423H350.867V216.647H291.14Z" fill="#FEFEFE"/>
<path d="M54.9343 95.5903V50.6862H17.4512V95.5903H0V2.82957H17.4512V33.5858H54.9343V2.82957H72.2626V95.5903H54.9343Z" fill="#FEFEFE"/>
<path d="M202.655 93.2528C196.879 90.7923 191.717 87.2246 187.293 82.7957C182.746 78.3668 179.182 73.1998 176.847 67.2946C174.266 61.3894 172.914 54.8691 172.914 48.4718C173.16 21.6524 194.79 0 221.458 0C236.697 0 251.076 7.25846 260.17 19.5609L262.259 22.1445L248.372 32.4786L246.406 29.895C240.63 22.0214 231.29 17.3465 221.458 17.3465C204.253 17.3465 190.242 31.2483 190.242 48.5948C190.242 65.9413 204.13 79.8431 221.458 79.8431C231.29 79.8431 240.507 75.1682 246.406 67.2946L248.372 64.8341L262.136 75.0451L260.047 77.6287C250.953 89.8081 236.697 97.0666 221.458 97.0666C215.067 97.0666 208.677 95.7133 202.655 93.2528Z" fill="#FEFEFE"/>
<path d="M343.37 95.5903L308.96 47.1185L294.089 61.1433V95.5903H276.761V2.82957H294.089V37.6456L330.958 2.82957H355.906L321.987 35.0621L365 95.5903H343.37Z" fill="#FEFEFE"/>
<path d="M134.694 2.82957H118.963L83.3232 95.5903H101.88L111.589 70.6163L126.828 30.8792L142.19 70.6163L151.653 95.5903H170.333L134.694 2.82957Z" fill="#FEFEFE"/>
</svg>
