<svg width="160" height="160" viewBox="0 0 160 160" fill="none" xmlns="http://www.w3.org/2000/svg">
<g clip-path="url(#clip0_734_1816)">
<rect width="160" height="160" fill="#0042C6"/>
<path d="M26.2198 112.84V84.2212H35.4514C43.2176 84.2212 49.5917 90.6357 49.5917 98.5304C49.5917 106.425 43.2176 112.84 35.4514 112.84H26.2198ZM35.4514 107.564C40.3968 107.564 44.4264 103.503 44.4264 98.5304C44.4264 93.5582 40.3968 89.497 35.4514 89.497H31.3485V107.564H35.4514Z" fill="#FEFEFE"/>
<path d="M54.7568 102.098V84.2213H59.9221V102.098C59.8488 105.287 62.2666 107.943 65.3438 108.019C68.4209 108.095 70.9853 105.59 71.0585 102.402C71.0585 102.288 71.0585 102.212 71.0585 102.098V84.2213H76.2604V102.098C76.2604 105.059 75.1248 107.868 73.11 109.955C68.8972 114.282 62.0834 114.282 57.9073 109.955C55.8925 107.868 54.7568 105.059 54.7568 102.098Z" fill="#FEFEFE"/>
<path d="M102.453 112.839L92.1959 97.885L87.7633 102.25V112.839H82.6346V84.259H87.7633V94.9625L98.7898 84.259H106.19L96.1156 94.1654L108.901 112.839H102.453Z" fill="#FEFEFE"/>
<path d="M113 113V84H135V89.2762H119.298V93.5511H132.96V98.9814H119.298V107.608H134.556V113H113Z" fill="#FEFEFE"/>
<path d="M42.375 75.4912V61.6375H31.2019V75.4912H26V46.8728H31.2019V56.3617H42.375V46.8728H47.5402V75.4912H42.375Z" fill="#FEFEFE"/>
<path d="M88.8652 74.7702C87.1434 74.0111 85.6048 72.9104 84.2861 71.544C82.9306 70.1776 81.8683 68.5835 81.1723 66.7616C80.403 64.9397 80 62.9281 80 60.9544C80.0733 52.6802 86.5207 46 94.47 46C99.0125 46 103.299 48.2394 106.009 52.0349L106.632 52.832L102.493 56.0202L101.907 55.2232C100.185 52.794 97.4007 51.3517 94.47 51.3517C89.3414 51.3517 85.1653 55.6407 85.1653 60.9924C85.1653 66.3441 89.3048 70.6331 94.47 70.6331C97.4007 70.6331 100.148 69.1908 101.907 66.7616L102.493 66.0025L106.596 69.1528L105.973 69.9499C103.262 73.7074 99.0125 75.9468 94.47 75.9468C92.5651 75.9468 90.6602 75.5293 88.8652 74.7702Z" fill="#FEFEFE"/>
<path d="M132.855 75.6184L122.598 60.6639L118.165 64.9909V75.6184H113V47H118.165V57.7414L129.155 47H136.592L126.481 56.9443L139.302 75.6184H132.855Z" fill="#FEFEFE"/>
<path d="M68.3126 47H63.6236L53 75.6184H58.5316L61.4256 67.9134L65.9681 55.6538L70.5472 67.9134L73.3679 75.6184H78.9362L68.3126 47Z" fill="#FEFEFE"/>
<path d="M12.5611 174.319C23.0606 177.425 44.4125 158.475 53.776 148.611C54.9598 146.198 55.8557 140.418 49.9691 136.605C42.6108 131.839 34.999 128.579 15.3477 130.095C-4.30366 131.611 -3.40306 142.623 -7.76151 151.508C-12.12 160.393 -0.563361 170.437 12.5611 174.319Z" fill="#E55511"/>
<path d="M103.146 -54.8555C94.8564 -49.15 77.9386 -27.9054 80.662 3.63129C83.3853 35.168 105.652 34.9147 129.209 23.0709C152.765 11.227 181.959 -20.7735 164.534 -50.7312C147.11 -80.6888 111.436 -60.561 103.146 -54.8555Z" fill="#F7AF1C"/>
<path d="M160.136 0.0652044L146.316 32.6545M137.91 9.00854L168.542 23.7112M147.282 -0.3604L159.17 33.0801M168.942 10.036L137.51 22.6837" stroke="#35C69B" stroke-width="3" stroke-linecap="round"/>
<path d="M146.305 88.0084C155.694 82.4513 169.317 101.058 174.954 111.057C178.64 117.519 180.923 138.646 190.676 141.257C203.566 144.707 192.857 174.451 182.635 176.663C172.414 178.874 167.974 167.163 159.479 166.392C150.984 165.621 139.711 176.135 133.472 175.249C127.677 174.426 121.843 162.872 114.468 163.506C105.25 164.298 100.013 155.716 108.265 148.722C116.518 141.728 107.354 139.304 117.456 133.913C127.558 128.523 133.519 135.245 143.593 131.463C153.667 127.681 134.568 94.9547 146.305 88.0084Z" fill="#35C69B"/>
<path d="M112.114 142.66C100.651 132.604 93.6512 124.047 95.335 121.465C97.6089 117.979 114.859 126.71 133.864 140.967C152.869 155.224 166.432 169.607 164.158 173.094C162.337 175.887 150.505 170.581 148.395 169.103" stroke="#F7AF1C" stroke-width="3" stroke-linecap="round"/>
<path d="M181.991 86.8993V86.8993C182.103 81.3362 177.304 76.9396 171.772 77.5379L164.763 78.296C155.293 79.3203 147.34 71.2521 148.501 61.7978L149.492 53.7293C150.029 49.352 146.664 45.47 142.255 45.381V45.381C138.145 45.298 134.881 41.8992 134.964 37.7896L135 36" stroke="#E55511" stroke-width="4" stroke-linecap="round" stroke-linejoin="round"/>
<path d="M23.5084 -8.63556C31.6823 -8.25479 43.4149 14.1309 48.2594 25.2762C48.6462 27.6826 48.1739 32.8851 43.1903 34.4432C36.9608 36.3909 30.8398 36.9778 16.9597 29.9959C3.07958 23.014 5.86025 13.8559 4.43617 4.99574C3.01209 -3.8644 13.291 -9.11153 23.5084 -8.63556Z" fill="#35C69B"/>
<path d="M4.92951 68.5119C7.26004 68.817 9.51226 69.7521 11.4449 71.2205L10.2349 72.813C11.8058 74.0066 13.1389 75.6157 14.0521 77.5777C14.9654 79.5398 15.3384 81.5957 15.2404 83.5662L17.2379 83.6656C17.1173 86.0899 16.3827 88.4153 15.1157 90.395L13.4312 89.3169C12.3641 90.9843 10.8586 92.351 8.97969 93.2257C7.10074 94.1003 5.08567 94.3722 3.12281 94.1153L2.86317 96.0983C0.53264 95.7932 -1.71957 94.8581 -3.65221 93.3896L-2.44221 91.7972C-4.01312 90.6036 -5.34617 88.9945 -6.25946 87.0324C-7.17276 85.0704 -7.54573 83.0144 -7.44767 81.0439L-9.4452 80.9445C-9.32457 78.5203 -8.59004 76.1949 -7.32305 74.2152L-5.6385 75.2933C-4.57139 73.6259 -3.06594 72.2591 -1.187 71.3845C0.691946 70.5099 2.70701 70.2379 4.66988 70.4949L4.92951 68.5119Z" stroke="#F7AF1C" stroke-width="4" stroke-linejoin="round" stroke-dasharray="10 5"/>
</g>
<defs>
<clipPath id="clip0_734_1816">
<rect width="160" height="160" fill="white"/>
</clipPath>
</defs>
</svg>
