<svg width="88" height="22" viewBox="0 0 88 22" fill="none" xmlns="http://www.w3.org/2000/svg">
    <path d="M27.8621 9.67318C27.8621 9.89764 27.7486 10.0099 27.5216 10.0099H25.7341C25.6584 10.0099 25.6206 10.0473 25.6206 10.1221V14.1904C25.6206 14.6206 25.7057 14.9386 25.876 15.1443C26.0557 15.3407 26.3441 15.4389 26.7414 15.4389H27.3088C27.5264 15.4389 27.6351 15.5511 27.6351 15.7756V17.473C27.6351 17.6788 27.5264 17.7957 27.3088 17.8238C26.7981 17.8518 26.434 17.8658 26.2165 17.8658C25.1099 17.8658 24.2871 17.6788 23.748 17.3047C23.2089 16.94 22.9299 16.2619 22.9109 15.2706V10.1221C22.9109 10.0473 22.8731 10.0099 22.7974 10.0099H21.776C21.5585 10.0099 21.4497 9.89764 21.4497 9.67318V8.11601C21.4497 7.89156 21.5585 7.77933 21.776 7.77933H22.7974C22.8731 7.77933 22.9109 7.74192 22.9109 7.6671V5.45059C22.9109 5.22614 23.0244 5.11391 23.2514 5.11391H25.2801C25.5071 5.11391 25.6206 5.22614 25.6206 5.45059V7.6671C25.6206 7.74192 25.6584 7.77933 25.7341 7.77933H27.5216C27.7486 7.77933 27.8621 7.89156 27.8621 8.11601V9.67318ZM35.5088 8.11601C35.5088 7.89156 35.6223 7.77933 35.8493 7.77933H37.9631C38.1901 7.77933 38.3036 7.89156 38.3036 8.11601V17.5432C38.3036 17.7676 38.1901 17.8799 37.9631 17.8799H35.8493C35.6223 17.8799 35.5088 17.7676 35.5088 17.5432V17.0101C35.5088 16.9633 35.4899 16.9353 35.452 16.9259C35.4237 16.9166 35.3953 16.9353 35.3669 16.982C34.8467 17.6741 34.0334 18.0202 32.9268 18.0202C31.9148 18.0202 31.0873 17.7162 30.4441 17.1083C29.7915 16.5097 29.4652 15.668 29.4652 14.5832V8.11601C29.4652 7.89156 29.5787 7.77933 29.8057 7.77933H31.9054C32.1323 7.77933 32.2458 7.89156 32.2458 8.11601V13.8958C32.2458 14.4195 32.3877 14.845 32.6714 15.1724C32.9552 15.4997 33.3524 15.6634 33.8631 15.6634C34.3076 15.6634 34.6765 15.5278 34.9697 15.2565C35.2629 14.9853 35.4426 14.6346 35.5088 14.2044V8.11601ZM45.4537 7.65307C45.8793 7.65307 46.2293 7.72789 46.5035 7.87753C46.6643 7.9617 46.7258 8.10199 46.688 8.29838L46.3049 10.3606C46.2955 10.4728 46.2624 10.5429 46.2056 10.571C46.1394 10.5991 46.0401 10.5991 45.9077 10.571C45.6996 10.5242 45.5105 10.5009 45.3402 10.5009C45.2456 10.5009 45.0943 10.5102 44.8862 10.5289C44.4039 10.5757 43.9972 10.7487 43.6662 11.048C43.3352 11.3566 43.1696 11.7681 43.1696 12.2825V17.5432C43.1696 17.7676 43.0562 17.8799 42.8292 17.8799H40.7153C40.4884 17.8799 40.3749 17.7676 40.3749 17.5432V8.11601C40.3749 7.89156 40.4884 7.77933 40.7153 7.77933H42.8292C43.0562 7.77933 43.1696 7.89156 43.1696 8.11601V8.73327C43.1696 8.78003 43.1838 8.81276 43.2122 8.83147C43.2406 8.84082 43.2737 8.82679 43.3115 8.78938C43.8412 8.03184 44.5552 7.65307 45.4537 7.65307ZM57.0159 10.3606C57.2713 11.0152 57.399 11.8242 57.399 12.7875C57.399 13.7321 57.2855 14.5177 57.0585 15.1443C56.7937 16.0141 56.3113 16.7108 55.6114 17.2346C54.921 17.7676 54.1266 18.0342 53.2281 18.0342C52.2539 18.0342 51.4973 17.6835 50.9582 16.982C50.9298 16.9353 50.9014 16.9166 50.8731 16.9259C50.8352 16.9353 50.8163 16.9633 50.8163 17.0101V17.5432C50.8163 17.7676 50.7028 17.8799 50.4758 17.8799H48.362C48.135 17.8799 48.0215 17.7676 48.0215 17.5432V4.4686C48.0215 4.24414 48.135 4.13191 48.362 4.13191H50.4758C50.7028 4.13191 50.8163 4.24414 50.8163 4.4686V8.50881C50.8163 8.56493 50.8352 8.59766 50.8731 8.60701C50.9014 8.62572 50.9298 8.61169 50.9582 8.56493C51.4878 7.92897 52.2445 7.61099 53.2281 7.61099C54.1266 7.61099 54.9068 7.85882 55.5689 8.3545C56.2404 8.85017 56.7227 9.51887 57.0159 10.3606ZM54.0367 14.7796C54.311 14.2652 54.4481 13.6245 54.4481 12.8577C54.4481 12.0066 54.2921 11.3192 53.98 10.7955C53.6584 10.2904 53.195 10.0379 52.5897 10.0379C52.0317 10.0379 51.5871 10.2951 51.2561 10.8095C50.9818 11.2958 50.8447 11.9692 50.8447 12.8296C50.8447 13.6433 50.9771 14.2932 51.2419 14.7796C51.554 15.3407 52.0033 15.6213 52.5897 15.6213C53.2328 15.6213 53.7151 15.3407 54.0367 14.7796ZM63.5702 18.0342C62.4447 18.0342 61.4848 17.7489 60.6903 17.1784C59.8958 16.5986 59.352 15.813 59.0588 14.8216C58.8791 14.2044 58.7893 13.5357 58.7893 12.8156C58.7893 12.0113 58.8886 11.3145 59.0872 10.7253C59.3899 9.76203 59.9337 9.00449 60.7187 8.4527C61.5037 7.90091 62.4589 7.62502 63.5844 7.62502C64.6721 7.62502 65.6037 7.90091 66.3792 8.4527C67.1547 9.00449 67.6938 9.75735 67.9965 10.7113C68.1951 11.3098 68.2944 11.9972 68.2944 12.7735C68.2944 13.4562 68.2093 14.1155 68.0391 14.7515C67.7364 15.7803 67.1878 16.5846 66.3934 17.1644C65.6084 17.7443 64.6673 18.0342 63.5702 18.0342ZM63.5702 15.6634C63.9958 15.6634 64.36 15.5324 64.6626 15.2706C64.9653 15.0087 65.1828 14.6486 65.3152 14.1904C65.4192 13.835 65.4713 13.3767 65.4713 12.8156C65.4713 12.2638 65.4192 11.7962 65.3152 11.4127C65.1828 10.9732 64.9653 10.6271 64.6626 10.3746C64.36 10.1314 63.9816 10.0099 63.5277 10.0099C63.0926 10.0099 62.7237 10.1314 62.4211 10.3746C62.1184 10.6271 61.9009 10.9732 61.7685 11.4127C61.655 11.7962 61.5983 12.2638 61.5983 12.8156C61.5983 13.3487 61.655 13.8069 61.7685 14.1904C61.9009 14.6486 62.1232 15.0087 62.4353 15.2706C62.7379 15.5324 63.1162 15.6634 63.5702 15.6634ZM77.9419 7.62502C78.8025 7.62502 79.5686 7.77465 80.2401 8.07393C80.9116 8.36385 81.4365 8.766 81.8148 9.28038C82.1932 9.78541 82.3823 10.3559 82.3823 10.9919V17.5432C82.3823 17.7676 82.2688 17.8799 82.0418 17.8799H79.928C79.701 17.8799 79.5875 17.7676 79.5875 17.5432V17.0802C79.5875 17.0241 79.5733 16.9914 79.545 16.982C79.5166 16.982 79.4835 17.0007 79.4457 17.0382C78.8404 17.7022 77.9324 18.0342 76.7218 18.0342C75.7003 18.0342 74.8822 17.7863 74.2675 17.2907C73.6433 16.795 73.3312 16.0608 73.3312 15.0882C73.3312 14.0781 73.6858 13.2972 74.3952 12.7454C75.114 12.1843 76.1354 11.9037 77.4595 11.9037H79.4598C79.545 11.9037 79.5875 11.8663 79.5875 11.7915V11.3847C79.5875 10.9451 79.4504 10.6037 79.1761 10.3606C78.9018 10.1268 78.5093 10.0099 77.9986 10.0099C77.6014 10.0099 77.2704 10.0753 77.0055 10.2063C76.7502 10.3372 76.5752 10.5196 76.4806 10.7534C76.405 10.9311 76.2726 11.0152 76.0834 11.0059L73.8844 10.7253C73.7804 10.716 73.6953 10.6879 73.6291 10.6411C73.5723 10.5944 73.5534 10.5336 73.5723 10.4588C73.6385 9.91634 73.8655 9.43002 74.2533 8.99981C74.6411 8.5696 75.1565 8.23292 75.7997 7.98976C76.4428 7.7466 77.1569 7.62502 77.9419 7.62502ZM77.5446 15.972C78.1121 15.972 78.5945 15.8223 78.9917 15.5231C79.3889 15.2238 79.5875 14.8357 79.5875 14.3587V13.6713C79.5875 13.5965 79.545 13.5591 79.4598 13.5591H78.0554C77.4595 13.5591 76.9913 13.6713 76.6509 13.8958C76.3009 14.1202 76.126 14.4335 76.126 14.8357C76.126 15.1911 76.2584 15.4716 76.5232 15.6774C76.7785 15.8738 77.119 15.972 77.5446 15.972ZM85.8865 6.82539C85.3757 6.82539 84.9643 6.67108 84.6522 6.36245C84.3306 6.05382 84.1698 5.65635 84.1698 5.17002C84.1698 4.6837 84.3306 4.2909 84.6522 3.99163C84.9643 3.683 85.3757 3.52869 85.8865 3.52869C86.3972 3.52869 86.8086 3.67832 87.1207 3.9776C87.4328 4.27687 87.5889 4.67435 87.5889 5.17002C87.5889 5.6657 87.4328 6.06785 87.1207 6.37648C86.8086 6.67575 86.3972 6.82539 85.8865 6.82539ZM84.8224 17.8799C84.6049 17.8799 84.4961 17.7676 84.4961 17.5432V8.11601C84.4961 7.89156 84.6049 7.77933 84.8224 7.77933H86.9505C87.1775 7.77933 87.2909 7.89156 87.2909 8.11601V17.5432C87.2909 17.7676 87.1775 17.8799 86.9505 17.8799H84.8224Z" fill="black"/>
    <path d="M12.0441 0.357071C11.6736 0.152704 11.2165 0.162501 10.7374 0.346731C10.9272 0.353943 11.1127 0.404718 11.2793 0.49504C12.2738 1.04365 12.2692 2.92731 11.268 4.70185C11.0842 5.02786 10.9001 5.3536 10.7165 5.6796C10.3673 6.29842 9.83781 6.9654 9.59729 7.62831C9.53922 7.78804 9.37438 8.37665 9.40768 8.51898C9.53372 9.06078 10.6205 7.06772 10.6959 6.93411C11.1417 6.14412 11.5875 5.35387 12.0328 4.56388C13.0337 2.78907 13.0386 0.905407 12.0441 0.357071ZM15.6505 21.7582C15.4939 21.7582 15.3561 21.7272 15.2341 21.6654C14.8288 21.4592 14.7349 20.9878 14.6441 20.5312C14.5627 20.12 14.4856 19.7317 14.2096 19.5905C13.7968 19.3796 12.9583 19.514 12.4569 19.5954L12.4024 19.6041C11.948 19.6773 11.462 19.8264 10.9474 19.9848C10.2567 20.1968 9.54307 20.4164 8.88921 20.4428L8.62337 20.4534L8.64428 20.1916C8.65611 20.0433 8.72491 19.8884 8.79812 19.7235C8.9481 19.3864 8.99626 19.2209 8.88645 19.1355C8.65667 18.9559 7.96124 19.0266 6.8211 19.3456L6.70855 19.3771C6.6092 19.4043 6.46582 19.4484 6.29108 19.5023C4.75328 19.9758 3.05476 20.4411 2.35769 19.9635C2.16891 19.8337 2.06185 19.6416 2.04809 19.4071C2.04456 19.3453 2.06598 19.2847 2.10762 19.2386C2.14927 19.1924 2.20774 19.1646 2.27018 19.161C2.40145 19.1602 2.51152 19.2517 2.51923 19.3807C2.52446 19.4726 2.55638 19.5325 2.62656 19.5801C3.19319 19.9684 5.34192 19.3061 6.151 19.0568C6.33208 19.001 6.48041 18.9553 6.58306 18.927L6.69259 18.8968C7.70559 18.6133 8.70785 18.4026 9.17899 18.7689C9.59371 19.0927 9.37493 19.5853 9.23045 19.911C9.22522 19.9225 9.22082 19.9333 9.21559 19.9442C9.72058 19.8732 10.2712 19.7037 10.8073 19.5388C11.3151 19.3831 11.8399 19.2215 12.327 19.1434L12.3812 19.1347C12.9767 19.0386 13.8766 18.8941 14.4264 19.176C14.9045 19.4204 15.0126 19.963 15.1076 20.4414C15.1797 20.8042 15.2479 21.1473 15.4502 21.2504C15.6277 21.3405 15.9571 21.2798 16.404 21.0782C16.4322 21.0651 16.4628 21.0576 16.494 21.0562C16.5251 21.0549 16.5563 21.0596 16.5856 21.0703C16.6148 21.0809 16.6417 21.0971 16.6646 21.1181C16.6875 21.139 16.706 21.1643 16.7189 21.1923C16.7319 21.2204 16.7391 21.2507 16.7401 21.2815C16.7411 21.3124 16.736 21.3431 16.7249 21.3719C16.7138 21.4008 16.6971 21.4272 16.6756 21.4496C16.6542 21.472 16.6285 21.4899 16.5999 21.5024C16.2202 21.6739 15.9089 21.7582 15.6505 21.7582ZM3.76312 13.697C2.96092 13.436 2.32604 12.996 1.99003 12.5301C0.311328 16.107 -0.442161 18.8519 0.264819 19.2419C0.997118 19.6457 3.07981 17.4007 5.36862 13.9052C4.895 13.9476 4.33525 13.8829 3.76312 13.697Z" fill="black"/>
    <path d="M11.0462 0.128227C10.1037 -0.391536 8.4781 0.715749 7.41501 2.60077L3.24661 9.9912L3.2612 9.99909C2.85367 10.7617 2.46425 11.5337 2.09326 12.3143C2.53303 12.6893 3.16323 13.0363 3.90295 13.2769C4.49931 13.4709 5.07915 13.5667 5.58551 13.5743C5.94822 13.0106 6.30089 12.4407 6.64336 11.8648L6.65767 11.8727L10.8266 4.48226C11.89 2.59724 11.988 0.647989 11.0462 0.128227Z" fill="black"/>
</svg>
