<svg width="352" height="187" viewBox="0 0 352 187" fill="none" xmlns="http://www.w3.org/2000/svg">
<g id="building">
<path id="Rectangle 8" d="M100 102H68C65.7909 102 64 103.791 64 106V138C64 140.209 65.7909 142 68 142H100C102.209 142 104 140.209 104 138V106C104 103.791 102.209 102 100 102Z" fill="#0042C6"/>
<path id="Rectangle 4" d="M100 147H68C65.7909 147 64 148.791 64 151V183C64 185.209 65.7909 187 68 187H100C102.209 187 104 185.209 104 183V151C104 148.791 102.209 147 100 147Z" fill="#E55511"/>
<path id="Rectangle 7" d="M251 105V184C251 185.657 252.343 187 254 187H288C289.657 187 291 185.657 291 184V105C291 103.343 289.657 102 288 102H254C252.343 102 251 103.343 251 105Z" fill="#0042C6"/>
<circle id="Ellipse 4" cx="324" cy="159" r="26.5" stroke="#E55511" stroke-width="3" stroke-linejoin="round" stroke-dasharray="10 5"/>
<circle id="Ellipse 5" cx="28" cy="159" r="28" fill="#F7AF1C"/>
<path id="Subtract" fill-rule="evenodd" clip-rule="evenodd" d="M244.368 106C244.368 103.791 242.578 102 240.368 102H117C114.791 102 113 103.791 113 106V182.842C113 185.051 114.791 186.842 117 186.842H154.158C156.367 186.842 158.158 185.051 158.158 182.842V166.316C158.158 163.62 158.689 160.951 159.72 158.461C160.752 155.97 162.264 153.708 164.17 151.802C166.076 149.895 168.339 148.384 170.829 147.352C173.319 146.32 175.989 145.789 178.684 145.789C181.38 145.789 184.049 146.32 186.539 147.352C189.03 148.384 191.292 149.895 193.198 151.802C195.105 153.708 196.616 155.97 197.648 158.461C198.68 160.951 199.211 163.62 199.211 166.316V182.842C199.211 185.051 201.001 186.842 203.211 186.842H240.368C242.578 186.842 244.368 185.051 244.368 182.842V106Z" fill="#F7AF1C"/>
<path id="Union" d="M197.054 26.229C198.009 28.5342 198.5 31.0049 198.5 33.5V50C198.5 51.3807 197.381 52.5 196 52.5L163 52.5C161.619 52.5 160.5 51.3807 160.5 50V33.5C160.5 31.0049 160.991 28.5342 161.946 26.229C162.901 23.9239 164.301 21.8293 166.065 20.065C167.829 18.3007 169.924 16.9012 172.229 15.9463C174.534 14.9914 177.005 14.5 179.5 14.5C181.995 14.5 184.466 14.9914 186.771 15.9463C189.076 16.9012 191.171 18.3007 192.935 20.065C194.699 21.8293 196.099 23.9239 197.054 26.229Z" stroke="#F7AF1C" stroke-width="3" stroke-linecap="round" stroke-linejoin="round"/>
<path id="Rectangle 9 (Stroke)" fill-rule="evenodd" clip-rule="evenodd" d="M150.531 58.3035C150.06 58.1079 149.542 58 149 58H147V60H149C149.275 60 149.532 60.0543 149.765 60.151L150.531 58.3035ZM119 58V60H117C116.725 60 116.468 60.0543 116.235 60.151L115.469 58.3035C115.94 58.1079 116.458 58 117 58H119ZM113 92H115V94C115 94.2749 115.054 94.532 115.151 94.765L113.304 95.5312C113.108 95.0595 113 94.5424 113 94V92ZM147 98V96H149C149.275 96 149.532 95.9457 149.765 95.849L150.531 97.6965C150.06 97.8921 149.542 98 149 98H147ZM153 64H151V62C151 61.7251 150.946 61.468 150.849 61.235L152.696 60.4688C152.892 60.9405 153 61.4576 153 62V64ZM153 68H151V72H153V68ZM153 76H151V80H153V76ZM153 84H151V88H153V84ZM153 92H151V94C151 94.2749 150.946 94.532 150.849 94.765L152.696 95.5312C152.892 95.0595 153 94.5424 153 94V92ZM143 98V96H139V98H143ZM135 98V96H131V98H135ZM127 98V96H123V98H127ZM119 98V96H117C116.725 96 116.468 95.9457 116.235 95.849L115.469 97.6965C115.94 97.8921 116.458 98 117 98H119ZM113 88H115V84H113V88ZM113 80H115V76H113V80ZM113 72H115V68H113V72ZM113 64H115V62C115 61.7251 115.054 61.468 115.151 61.235L113.304 60.4688C113.108 60.9405 113 61.4576 113 62V64ZM123 58V60H127V58H123ZM131 58V60H135V58H131ZM139 58V60H143V58H139Z" fill="#0042C6"/>
<path id="Rectangle 16" d="M195 58H163C160.791 58 159 59.7909 159 62V94C159 96.2091 160.791 98 163 98H195C197.209 98 199 96.2091 199 94V62C199 59.7909 197.209 58 195 58Z" fill="#FEFEFE"/>
<path id="Rectangle 17" d="M209 59.5H241C242.381 59.5 243.5 60.6193 243.5 62V94C243.5 95.3807 242.381 96.5 241 96.5H209C207.619 96.5 206.5 95.3807 206.5 94V62C206.5 60.6193 207.619 59.5 209 59.5Z" stroke="#E55511" stroke-width="3"/>
<path id="Polygon 2" d="M86.1651 60.75L103.486 90.75C104.448 92.4167 103.245 94.5 101.321 94.5H66.6795C64.755 94.5 63.5522 92.4167 64.5144 90.75L81.8349 60.75C82.7972 59.0833 85.2028 59.0833 86.1651 60.75Z" stroke="#FEFEFE" stroke-width="3" stroke-linecap="round" stroke-linejoin="round"/>
<path id="Polygon 3" d="M267.536 60C269.075 57.3333 272.925 57.3333 274.464 60L291.785 90C293.324 92.6667 291.4 96 288.321 96H253.679C250.6 96 248.676 92.6667 250.215 90L267.536 60Z" fill="#F7AF1C"/>
<path id="Vector 8" d="M303 9L285 40.1769" stroke="#FEFEFE" stroke-width="3" stroke-linecap="round"/>
<path id="Vector 10" d="M325.177 33L294 51" stroke="#FEFEFE" stroke-width="3" stroke-linecap="round"/>
<path id="Vector 9" d="M271 2V38" stroke="#FEFEFE" stroke-width="3" stroke-linecap="round"/>
</g>
</svg>
